<svg id="Layer_1" data-name="Layer 1" xmlns="http://www.w3.org/2000/svg" viewBox="0 0 46.58 98.92"><defs><style>.cls-1{fill:#fff;}</style></defs><path class="cls-1" d="M23.29,12.76C12,12.76,0,10.53,0,6.38S12,0,23.29,0,46.58,2.24,46.58,6.38,34.58,12.76,23.29,12.76ZM23.29,1C10.15,1,1,3.84,1,6.38s9.15,5.38,22.29,5.38S45.58,8.93,45.58,6.38,36.42,1,23.29,1Z"/><path class="cls-1" d="M23.29,98.94C12,98.94,0,96.7,0,92.56V6.38H1V92.56c0,2.54,9.15,5.38,22.29,5.38s22.29-2.84,22.29-5.38V6.38h1V92.56C46.58,96.7,34.58,98.94,23.29,98.94Z"/></svg>